<?xml version="1.0" encoding="utf-8"?>
<!-- created with bpmn-js / http://bpmn.io -->
<!DOCTYPE svg PUBLIC "-//W3C//DTD SVG 1.1//EN" "http://www.w3.org/Graphics/SVG/1.1/DTD/svg11.dtd">
<svg xmlns="http://www.w3.org/2000/svg" xmlns:xlink="http://www.w3.org/1999/xlink" width="770" height="799" viewBox="150 75 770 799" version="1.1"><defs><marker id="sequenceflow-end-white-black-4olgfh7njbu1b5su1pum5qehu" viewBox="0 0 20 20" refX="11" refY="10" markerWidth="10" markerHeight="10" orient="auto"><path d="M 1 5 L 11 10 L 1 15 Z" style="fill: black; stroke-width: 1px; stroke-linecap: round; stroke-dasharray: 10000, 1; stroke: black;"/></marker><marker id="messageflow-end-white-black-4olgfh7njbu1b5su1pum5qehu" viewBox="0 0 20 20" refX="8.5" refY="5" markerWidth="20" markerHeight="20" orient="auto"><path d="m 1 5 l 0 -3 l 7 3 l -7 3 z" style="fill: white; stroke-width: 1px; stroke-linecap: butt; stroke-dasharray: 10000, 1; stroke: black;"/></marker><marker id="messageflow-start-white-black-4olgfh7njbu1b5su1pum5qehu" viewBox="0 0 20 20" refX="6" refY="6" markerWidth="20" markerHeight="20" orient="auto"><circle cx="6" cy="6" r="3.5" style="fill: white; stroke-width: 1px; stroke-linecap: round; stroke-dasharray: 10000, 1; stroke: black;"/></marker></defs><g class="djs-group"><g class="djs-element djs-shape" data-element-id="Participant_1tektbe" style="display: block;" transform="matrix(1 0 0 1 156 498)"><g class="djs-visual"><rect x="0" y="0" width="600" height="370" rx="0" ry="0" style="stroke: black; stroke-width: 2px; fill: white; fill-opacity: 0.95;"/><polyline points="30,0 30,370 " style="fill: none; stroke: black; stroke-width: 2px;"/><text lineHeight="1.2" class="djs-label" style="font-family: Arial, sans-serif; font-size: 12px; font-weight: normal; fill: black;" transform="matrix(-1.83697e-16 -1 1 -1.83697e-16 0 370)"><tspan x="165" y="18.6">System</tspan></text></g><rect x="0" y="0" width="600" height="370" class="djs-hit" style="fill: none; stroke-opacity: 0; stroke: white; stroke-width: 15px;"/><rect x="-6" y="-6" width="612" height="382" class="djs-outline" style="fill: none;"/></g><g class="djs-children"><g class="djs-group"><g class="djs-element djs-shape" data-element-id="Lane_1koepdt" style="display: block;" transform="matrix(1 0 0 1 186 498)"><g class="djs-visual"><rect x="0" y="0" width="570" height="250" rx="0" ry="0" style="stroke: black; stroke-width: 2px; fill: white; fill-opacity: 0.35;"/><text lineHeight="1.2" class="djs-label" style="font-family: Arial, sans-serif; font-size: 12px; font-weight: normal; fill: black;" transform="matrix(-1.83697e-16 -1 1 -1.83697e-16 0 250)"><tspan x="110.15625" y="18.6">Logic</tspan></text></g><rect x="0" y="0" width="570" height="250" class="djs-hit" style="fill: none; stroke-opacity: 0; stroke: white; stroke-width: 15px;"/><rect x="-6" y="-6" width="582" height="262" class="djs-outline" style="fill: none;"/></g></g><g class="djs-group"><g class="djs-element djs-shape" data-element-id="Lane_1wlpqdq" style="display: block;" transform="matrix(1 0 0 1 186 748)"><g class="djs-visual"><rect x="0" y="0" width="570" height="120" rx="0" ry="0" style="stroke: black; stroke-width: 2px; fill: white; fill-opacity: 0.35;"/><text lineHeight="1.2" class="djs-label" style="font-family: Arial, sans-serif; font-size: 12px; font-weight: normal; fill: black;" transform="matrix(-1.83697e-16 -1 1 -1.83697e-16 0 120)"><tspan x="42.671875" y="18.6">DBMS</tspan></text></g><rect x="0" y="0" width="570" height="120" class="djs-hit" style="fill: none; stroke-opacity: 0; stroke: white; stroke-width: 15px;"/><rect x="-6" y="-6" width="582" height="132" class="djs-outline" style="fill: none;"/></g></g><g class="djs-group"><g class="djs-element djs-connection" data-element-id="SequenceFlow_009sn0n" style="display: block;"><g class="djs-visual"><path d="m  257,628L307,628 " style="fill: none; stroke-width: 2px; stroke: black; stroke-linejoin: round; marker-end: url('#sequenceflow-end-white-black-4olgfh7njbu1b5su1pum5qehu');"/></g><polyline points="257,628 307,628 " class="djs-hit" style="fill: none; stroke-opacity: 0; stroke: white; stroke-width: 15px;"/><rect x="251" y="622" width="62" height="12" class="djs-outline" style="fill: none;"/></g></g><g class="djs-group"><g class="djs-element djs-connection" data-element-id="SequenceFlow_1y6sntt" style="display: block;"><g class="djs-visual"><path d="m  407,628L457,628 " style="fill: none; stroke-width: 2px; stroke: black; stroke-linejoin: round; marker-end: url('#sequenceflow-end-white-black-4olgfh7njbu1b5su1pum5qehu');"/></g><polyline points="407,628 457,628 " class="djs-hit" style="fill: none; stroke-opacity: 0; stroke: white; stroke-width: 15px;"/><rect x="401" y="622" width="62" height="12" class="djs-outline" style="fill: none;"/></g></g><g class="djs-group"><g class="djs-element djs-connection" data-element-id="SequenceFlow_1qa5xtf" style="display: block;"><g class="djs-visual"><path d="m  482,653L482,773 " style="fill: none; stroke-width: 2px; stroke: black; stroke-linejoin: round; marker-end: url('#sequenceflow-end-white-black-4olgfh7njbu1b5su1pum5qehu');"/></g><polyline points="482,653 482,773 " class="djs-hit" style="fill: none; stroke-opacity: 0; stroke: white; stroke-width: 15px;"/><rect x="476" y="647" width="12" height="132" class="djs-outline" style="fill: none;"/></g></g><g class="djs-group"><g class="djs-element djs-connection" data-element-id="SequenceFlow_1t0jjxc" style="display: block;"><g class="djs-visual"><path d="m  507,628L557,628 " style="fill: none; stroke-width: 2px; stroke: black; stroke-linejoin: round; marker-end: url('#sequenceflow-end-white-black-4olgfh7njbu1b5su1pum5qehu');"/></g><polyline points="507,628 557,628 " class="djs-hit" style="fill: none; stroke-opacity: 0; stroke: white; stroke-width: 15px;"/><rect x="501" y="622" width="62" height="12" class="djs-outline" style="fill: none;"/></g></g><g class="djs-group"><g class="djs-element djs-connection" data-element-id="SequenceFlow_1nyzyj0" style="display: block;"><g class="djs-visual"><path d="m  532,813L575,813 L575,646 " style="fill: none; stroke-width: 2px; stroke: black; stroke-linejoin: round; marker-end: url('#sequenceflow-end-white-black-4olgfh7njbu1b5su1pum5qehu');"/></g><polyline points="532,813 575,813 575,646 " class="djs-hit" style="fill: none; stroke-opacity: 0; stroke: white; stroke-width: 15px;"/><rect x="526" y="640" width="55" height="179" class="djs-outline" style="fill: none;"/></g></g><g class="djs-group"><g class="djs-element djs-shape" data-element-id="StartEvent_1wzzj0h" style="display: block;" transform="matrix(1 0 0 1 221 610)"><g class="djs-visual"><circle cx="18" cy="18" r="18" style="stroke: black; stroke-width: 2px; fill: white; fill-opacity: 0.95;"/><path d="m 8.459999999999999,11.34 l 0,12.6 l 18.900000000000002,0 l 0,-12.6 z l 9.450000000000001,5.4 l 9.450000000000001,-5.4" style="fill: white; stroke-width: 1px; stroke: black;"/></g><rect x="0" y="0" width="36" height="36" class="djs-hit" style="fill: none; stroke-opacity: 0; stroke: white; stroke-width: 15px;"/><rect x="-6" y="-6" width="48" height="48" class="djs-outline" style="fill: none;"/></g></g><g class="djs-group"><g class="djs-element djs-shape" data-element-id="Task_1sjhh2a" style="display: block;" transform="matrix(1 0 0 1 307 588)"><g class="djs-visual"><rect x="0" y="0" width="100" height="80" rx="10" ry="10" style="stroke: black; stroke-width: 2px; fill: white; fill-opacity: 0.95;"/><text lineHeight="1.2" class="djs-label" style="font-family: Arial, sans-serif; font-size: 12px; font-weight: normal; fill: black;"><tspan x="13.828125" y="43.599999999999994">Check review</tspan></text></g><rect x="0" y="0" width="100" height="80" class="djs-hit" style="fill: none; stroke-opacity: 0; stroke: white; stroke-width: 15px;"/><rect x="-6" y="-6" width="112" height="92" class="djs-outline" style="fill: none;"/></g></g><g class="djs-group"><g class="djs-element djs-shape" data-element-id="ExclusiveGateway_1uvgd79" style="display: block;" transform="matrix(1 0 0 1 457 603)"><g class="djs-visual"><polygon points="25,0 50,25 25,50 0,25" style="stroke: black; stroke-width: 2px; fill: white; fill-opacity: 0.95;"/><path d="m 16,15 7.42857142857143,9.714285714285715 -7.42857142857143,9.714285714285715 3.428571428571429,0 5.714285714285715,-7.464228571428572 5.714285714285715,7.464228571428572 3.428571428571429,0 -7.42857142857143,-9.714285714285715 7.42857142857143,-9.714285714285715 -3.428571428571429,0 -5.714285714285715,7.464228571428572 -5.714285714285715,-7.464228571428572 -3.428571428571429,0 z" style="fill: black; stroke-width: 1px; stroke: black;"/></g><rect x="0" y="0" width="50" height="50" class="djs-hit" style="fill: none; stroke-opacity: 0; stroke: white; stroke-width: 15px;"/><rect x="-6" y="-6" width="62" height="62" class="djs-outline" style="fill: none;"/></g></g><g class="djs-group"><g class="djs-element djs-shape" data-element-id="Task_120ine0" style="display: block;" transform="matrix(1 0 0 1 432 773)"><g class="djs-visual"><rect x="0" y="0" width="100" height="80" rx="10" ry="10" style="stroke: black; stroke-width: 2px; fill: white; fill-opacity: 0.95;"/><text lineHeight="1.2" class="djs-label" style="font-family: Arial, sans-serif; font-size: 12px; font-weight: normal; fill: black;"><tspan x="13.9921875" y="36.4">Add review to </tspan><tspan x="25.1484375" y="50.8">database</tspan></text></g><rect x="0" y="0" width="100" height="80" class="djs-hit" style="fill: none; stroke-opacity: 0; stroke: white; stroke-width: 15px;"/><rect x="-6" y="-6" width="112" height="92" class="djs-outline" style="fill: none;"/></g></g><g class="djs-group"><g class="djs-element djs-shape" data-element-id="EndEvent_0zax903" style="display: block;" transform="matrix(1 0 0 1 557 610)"><g class="djs-visual"><circle cx="18" cy="18" r="18" style="stroke: black; stroke-width: 4px; fill: white; fill-opacity: 0.95;"/><path d="m 8.459999999999999,11.34 l 0,12.6 l 18.900000000000002,0 l 0,-12.6 z l 9.450000000000001,5.4 l 9.450000000000001,-5.4" style="fill: black; stroke-width: 1px; stroke: white;"/></g><rect x="0" y="0" width="36" height="36" class="djs-hit" style="fill: none; stroke-opacity: 0; stroke: white; stroke-width: 15px;"/><rect x="-6" y="-6" width="48" height="48" class="djs-outline" style="fill: none;"/></g></g></g></g><g class="djs-group"><g class="djs-element djs-shape" data-element-id="Participant_0xgk6el" style="display: block;" transform="matrix(1 0 0 1 156 81)"><g class="djs-visual"><rect x="0" y="0" width="758" height="288" rx="0" ry="0" style="stroke: black; stroke-width: 2px; fill: white; fill-opacity: 0.95;"/><polyline points="30,0 30,288 " style="fill: none; stroke: black; stroke-width: 2px;"/><text lineHeight="1.2" class="djs-label" style="font-family: Arial, sans-serif; font-size: 12px; font-weight: normal; fill: black;" transform="matrix(-1.83697e-16 -1 1 -1.83697e-16 0 288)"><tspan x="117.4921875" y="18.6">Customer</tspan></text></g><rect x="0" y="0" width="758" height="288" class="djs-hit" style="fill: none; stroke-opacity: 0; stroke: white; stroke-width: 15px;"/><rect x="-6" y="-6" width="770" height="300" class="djs-outline" style="fill: none;"/></g><g class="djs-children"><g class="djs-group"><g class="djs-element djs-connection" data-element-id="SequenceFlow_0obzxnh" style="display: block;"><g class="djs-visual"><path d="m  234,227L284,227 " style="fill: none; stroke-width: 2px; stroke: black; stroke-linejoin: round; marker-end: url('#sequenceflow-end-white-black-4olgfh7njbu1b5su1pum5qehu');"/></g><polyline points="234,227 284,227 " class="djs-hit" style="fill: none; stroke-opacity: 0; stroke: white; stroke-width: 15px;"/><rect x="228" y="221" width="62" height="12" class="djs-outline" style="fill: none;"/></g></g><g class="djs-group"><g class="djs-element djs-connection" data-element-id="SequenceFlow_1v9uq29" style="display: block;"><g class="djs-visual"><path d="m  384,227L434,227 " style="fill: none; stroke-width: 2px; stroke: black; stroke-linejoin: round; marker-end: url('#sequenceflow-end-white-black-4olgfh7njbu1b5su1pum5qehu');"/></g><polyline points="384,227 434,227 " class="djs-hit" style="fill: none; stroke-opacity: 0; stroke: white; stroke-width: 15px;"/><rect x="378" y="221" width="62" height="12" class="djs-outline" style="fill: none;"/></g></g><g class="djs-group"><g class="djs-element djs-connection" data-element-id="SequenceFlow_14hn0bv" style="display: block;"><g class="djs-visual"><path d="m  534,227L584,227 " style="fill: none; stroke-width: 2px; stroke: black; stroke-linejoin: round; marker-end: url('#sequenceflow-end-white-black-4olgfh7njbu1b5su1pum5qehu');"/></g><polyline points="534,227 584,227 " class="djs-hit" style="fill: none; stroke-opacity: 0; stroke: white; stroke-width: 15px;"/><rect x="528" y="221" width="62" height="12" class="djs-outline" style="fill: none;"/></g></g><g class="djs-group"><g class="djs-element djs-connection" data-element-id="SequenceFlow_1uwnzql" style="display: block;"><g class="djs-visual"><path d="m  620,227L670,227 " style="fill: none; stroke-width: 2px; stroke: black; stroke-linejoin: round; marker-end: url('#sequenceflow-end-white-black-4olgfh7njbu1b5su1pum5qehu');"/></g><polyline points="620,227 670,227 " class="djs-hit" style="fill: none; stroke-opacity: 0; stroke: white; stroke-width: 15px;"/><rect x="614" y="221" width="62" height="12" class="djs-outline" style="fill: none;"/></g></g><g class="djs-group"><g class="djs-element djs-connection" data-element-id="SequenceFlow_0tzb95f" style="display: block;"><g class="djs-visual"><path d="m  706,227L756,227 " style="fill: none; stroke-width: 2px; stroke: black; stroke-linejoin: round; marker-end: url('#sequenceflow-end-white-black-4olgfh7njbu1b5su1pum5qehu');"/></g><polyline points="706,227 756,227 " class="djs-hit" style="fill: none; stroke-opacity: 0; stroke: white; stroke-width: 15px;"/><rect x="700" y="221" width="62" height="12" class="djs-outline" style="fill: none;"/></g></g><g class="djs-group"><g class="djs-element djs-connection" data-element-id="SequenceFlow_11r5dlo" style="display: block;"><g class="djs-visual"><path d="m  781,202L781,112 L484,112 L484,182 " style="fill: none; stroke-width: 2px; stroke: black; stroke-linejoin: round; marker-end: url('#sequenceflow-end-white-black-4olgfh7njbu1b5su1pum5qehu');"/></g><polyline points="781,202 781,112 484,112 484,182 " class="djs-hit" style="fill: none; stroke-opacity: 0; stroke: white; stroke-width: 15px;"/><rect x="478" y="106" width="309" height="102" class="djs-outline" style="fill: none;"/></g></g><g class="djs-group"><g class="djs-element djs-connection" data-element-id="SequenceFlow_0jj672g" style="display: block;"><g class="djs-visual"><path d="m  806,227L856,227 " style="fill: none; stroke-width: 2px; stroke: black; stroke-linejoin: round; marker-end: url('#sequenceflow-end-white-black-4olgfh7njbu1b5su1pum5qehu');"/></g><polyline points="806,227 856,227 " class="djs-hit" style="fill: none; stroke-opacity: 0; stroke: white; stroke-width: 15px;"/><rect x="800" y="221" width="62" height="12" class="djs-outline" style="fill: none;"/></g></g><g class="djs-group"><g class="djs-element djs-shape" data-element-id="StartEvent_0r3qp0a" style="display: block;" transform="matrix(1 0 0 1 198 209)"><g class="djs-visual"><circle cx="18" cy="18" r="18" style="stroke: black; stroke-width: 2px; fill: white; fill-opacity: 0.95;"/></g><rect x="0" y="0" width="36" height="36" class="djs-hit" style="fill: none; stroke-opacity: 0; stroke: white; stroke-width: 15px;"/><rect x="-6" y="-6" width="48" height="48" class="djs-outline" style="fill: none;"/></g></g><g class="djs-group"><g class="djs-element djs-shape" data-element-id="Task_0w7i3m9" style="display: block;" transform="matrix(1 0 0 1 284 187)"><g class="djs-visual"><rect x="0" y="0" width="100" height="80" rx="10" ry="10" style="stroke: black; stroke-width: 2px; fill: white; fill-opacity: 0.95;"/><text lineHeight="1.2" class="djs-label" style="font-family: Arial, sans-serif; font-size: 12px; font-weight: normal; fill: black;"><tspan x="20.484375" y="43.599999999999994">Opens app</tspan></text></g><rect x="0" y="0" width="100" height="80" class="djs-hit" style="fill: none; stroke-opacity: 0; stroke: white; stroke-width: 15px;"/><rect x="-6" y="-6" width="112" height="92" class="djs-outline" style="fill: none;"/></g></g><g class="djs-group"><g class="djs-element djs-shape" data-element-id="Task_0zcqbms" style="display: block;" transform="matrix(1 0 0 1 434 187)"><g class="djs-visual"><rect x="0" y="0" width="100" height="80" rx="10" ry="10" style="stroke: black; stroke-width: 2px; fill: white; fill-opacity: 0.95;"/><text lineHeight="1.2" class="djs-label" style="font-family: Arial, sans-serif; font-size: 12px; font-weight: normal; fill: black;"><tspan x="14.4453125" y="43.599999999999994">Writes review</tspan></text></g><rect x="0" y="0" width="100" height="80" class="djs-hit" style="fill: none; stroke-opacity: 0; stroke: white; stroke-width: 15px;"/><rect x="-6" y="-6" width="112" height="92" class="djs-outline" style="fill: none;"/></g></g><g class="djs-group"><g class="djs-element djs-shape" data-element-id="IntermediateThrowEvent_1tl711i" style="display: block;" transform="matrix(1 0 0 1 584 209)"><g class="djs-visual"><circle cx="18" cy="18" r="18" style="stroke: black; stroke-width: 1px; fill: white; fill-opacity: 0.95;"/><circle cx="18" cy="18" r="15" style="stroke: black; stroke-width: 1px; fill: none;"/><path d="m 8.459999999999999,11.34 l 0,12.6 l 18.900000000000002,0 l 0,-12.6 z l 9.450000000000001,5.4 l 9.450000000000001,-5.4" style="fill: black; stroke-width: 1px; stroke: white;"/></g><rect x="0" y="0" width="36" height="36" class="djs-hit" style="fill: none; stroke-opacity: 0; stroke: white; stroke-width: 15px;"/><rect x="-6" y="-6" width="48" height="48" class="djs-outline" style="fill: none;"/></g></g><g class="djs-group"><g class="djs-element djs-shape" data-element-id="IntermediateThrowEvent_0gtaac9" style="display: block;" transform="matrix(1 0 0 1 670 209)"><g class="djs-visual"><circle cx="18" cy="18" r="18" style="stroke: black; stroke-width: 1px; fill: white; fill-opacity: 0.95;"/><circle cx="18" cy="18" r="15" style="stroke: black; stroke-width: 1px; fill: none;"/><path d="m 8.459999999999999,11.34 l 0,12.6 l 18.900000000000002,0 l 0,-12.6 z l 9.450000000000001,5.4 l 9.450000000000001,-5.4" style="fill: white; stroke-width: 1px; stroke: black;"/></g><rect x="0" y="0" width="36" height="36" class="djs-hit" style="fill: none; stroke-opacity: 0; stroke: white; stroke-width: 15px;"/><rect x="-6" y="-6" width="48" height="48" class="djs-outline" style="fill: none;"/></g></g><g class="djs-group"><g class="djs-element djs-shape" data-element-id="ExclusiveGateway_149o31x" style="display: block;" transform="matrix(1 0 0 1 756 202)"><g class="djs-visual"><polygon points="25,0 50,25 25,50 0,25" style="stroke: black; stroke-width: 2px; fill: white; fill-opacity: 0.95;"/><path d="m 16,15 7.42857142857143,9.714285714285715 -7.42857142857143,9.714285714285715 3.428571428571429,0 5.714285714285715,-7.464228571428572 5.714285714285715,7.464228571428572 3.428571428571429,0 -7.42857142857143,-9.714285714285715 7.42857142857143,-9.714285714285715 -3.428571428571429,0 -5.714285714285715,7.464228571428572 -5.714285714285715,-7.464228571428572 -3.428571428571429,0 z" style="fill: black; stroke-width: 1px; stroke: black;"/></g><rect x="0" y="0" width="50" height="50" class="djs-hit" style="fill: none; stroke-opacity: 0; stroke: white; stroke-width: 15px;"/><rect x="-6" y="-6" width="62" height="62" class="djs-outline" style="fill: none;"/></g></g><g class="djs-group"><g class="djs-element djs-shape" data-element-id="EndEvent_1xiwkok" style="display: block;" transform="matrix(1 0 0 1 856 209)"><g class="djs-visual"><circle cx="18" cy="18" r="18" style="stroke: black; stroke-width: 4px; fill: white; fill-opacity: 0.95;"/></g><rect x="0" y="0" width="36" height="36" class="djs-hit" style="fill: none; stroke-opacity: 0; stroke: white; stroke-width: 15px;"/><rect x="-6" y="-6" width="48" height="48" class="djs-outline" style="fill: none;"/></g></g></g></g><g class="djs-group"><g class="djs-element djs-shape" data-element-id="SequenceFlow_1qa5xtf_label" style="display: block;" transform="matrix(1 0 0 1 397 698)"><g class="djs-visual"><text lineHeight="1.2" class="djs-label" style="font-family: Arial, sans-serif; font-size: 11px; font-weight: normal; fill: black;"><tspan x="0" y="9.899999999999999">Review accepted</tspan></text></g><rect x="0" y="0" width="84" height="14" class="djs-hit" style="fill: none; stroke-opacity: 0; stroke: white; stroke-width: 15px;"/><rect x="-6" y="-6" width="96" height="26" class="djs-outline" style="fill: none;"/></g></g><g class="djs-group"><g class="djs-element djs-shape" data-element-id="SequenceFlow_11r5dlo_label" style="display: block;" transform="matrix(1 0 0 1 589 94)"><g class="djs-visual"><text lineHeight="1.2" class="djs-label" style="font-family: Arial, sans-serif; font-size: 11px; font-weight: normal; fill: black;"><tspan x="0" y="9.899999999999999">Review discarded</tspan></text></g><rect x="0" y="0" width="87" height="14" class="djs-hit" style="fill: none; stroke-opacity: 0; stroke: white; stroke-width: 15px;"/><rect x="-6" y="-6" width="99" height="26" class="djs-outline" style="fill: none;"/></g></g><g class="djs-group"><g class="djs-element djs-connection" data-element-id="MessageFlow_01rkxho" style="display: block;"><g class="djs-visual"><path d="m  602,245L602,430 L239,430 L239,610 " style="fill: none; stroke-width: 1.5px; stroke: black; marker-end: url('#messageflow-end-white-black-4olgfh7njbu1b5su1pum5qehu'); marker-start: url('#messageflow-start-white-black-4olgfh7njbu1b5su1pum5qehu'); stroke-dasharray: 10, 12; stroke-linecap: round; stroke-linejoin: round;"/></g><polyline points="602,245 602,430 239,430 239,610 " class="djs-hit" style="fill: none; stroke-opacity: 0; stroke: white; stroke-width: 15px;"/><rect x="233" y="239" width="375" height="377" class="djs-outline" style="fill: none;"/></g></g><g class="djs-group"><g class="djs-element djs-connection" data-element-id="MessageFlow_0qg4zm9" style="display: block;"><g class="djs-visual"><path d="m  575,610L575,534 L688,534 L688,245 " style="fill: none; stroke-width: 1.5px; stroke: black; marker-end: url('#messageflow-end-white-black-4olgfh7njbu1b5su1pum5qehu'); marker-start: url('#messageflow-start-white-black-4olgfh7njbu1b5su1pum5qehu'); stroke-dasharray: 10, 12; stroke-linecap: round; stroke-linejoin: round;"/></g><polyline points="575,610 575,534 688,534 688,245 " class="djs-hit" style="fill: none; stroke-opacity: 0; stroke: white; stroke-width: 15px;"/><rect x="569" y="239" width="125" height="377" class="djs-outline" style="fill: none;"/></g></g><g class="djs-drag-group" style="pointer-events: none;" transform="matrix(1 0 0 1 200 298)"/><g class="djs-drag-group" style="pointer-events: none;" transform="matrix(1 0 0 1 129 410)"/><g class="djs-drag-group" style="pointer-events: none;" transform="matrix(1 0 0 1 195 -338)"/><g class="djs-drag-group" style="pointer-events: none;" transform="matrix(1 0 0 1 -126 -443)"/><g class="djs-drag-group" style="pointer-events: none;" transform="matrix(1 0 0 1 503 398)"/><g class="djs-drag-group" style="pointer-events: none;" transform="matrix(1 0 0 1 -56 -441)"/><g class="djs-drag-group" style="pointer-events: none;" transform="matrix(1 0 0 1 -640 -92)"/><g class="djs-drag-group" style="pointer-events: none;" transform="matrix(1 0 0 1 0 -17)"/><g class="djs-drag-group" style="pointer-events: none;" transform="matrix(1 0 0 1 0 -33)"/><g class="djs-drag-group" style="pointer-events: none;" transform="matrix(1 0 0 1 748 -247)"/><g class="djs-drag-group" style="pointer-events: none;" transform="matrix(1 0 0 1 0 240)"/><g class="djs-drag-group" style="pointer-events: none;" transform="matrix(1 0 0 1 -748 -106)"/><g class="djs-drag-group" style="pointer-events: none;" transform="matrix(1 0 0 1 0 822)"/><g class="djs-drag-group" style="pointer-events: none;" transform="matrix(1 0 0 1 -68 29)"/><g class="djs-drag-group" style="pointer-events: none;" transform="matrix(1 0 0 1 -68 126)"/><g class="djs-drag-group" style="pointer-events: none;" transform="matrix(1 0 0 1 -13 68)"/><g class="djs-drag-group" style="pointer-events: none;" transform="matrix(1 0 0 1 0 -43)"/><g class="djs-drag-group" style="pointer-events: none;" transform="matrix(1 0 0 1 -2 -7)"/><g class="djs-drag-group" style="pointer-events: none;" transform="matrix(1 0 0 1 -66 40)"/><g class="djs-drag-group" style="pointer-events: none;" transform="matrix(1 0 0 1 57 7)"/><g class="djs-drag-group" style="pointer-events: none;" transform="matrix(1 0 0 1 0 -19)"/><g class="djs-drag-group" style="pointer-events: none;" transform="matrix(1 0 0 1 4 -14)"/><g class="djs-drag-group" style="pointer-events: none;" transform="matrix(1 0 0 1 -123 -22)"/><g class="djs-drag-group" style="pointer-events: none;" transform="matrix(1 0 0 1 14 -57)"/><g class="djs-drag-group" style="pointer-events: none;" transform="matrix(1 0 0 1 0 -11)"/><g class="djs-drag-group" style="pointer-events: none;" transform="matrix(1 0 0 1 178 109)"/><g class="djs-drag-group" style="pointer-events: none;" transform="matrix(1 0 0 1 -20 5)"/><g class="djs-drag-group" style="pointer-events: none;" transform="matrix(1 0 0 1 0 -15)"/><g class="djs-drag-group" style="pointer-events: none;" transform="matrix(1 0 0 1 -1 5)"/><g class="djs-drag-group" style="pointer-events: none;" transform="matrix(1 0 0 1 -384 -115)"/><g class="djs-drag-group" style="pointer-events: none;" transform="matrix(1 0 0 1 -285 182)"/><g class="djs-drag-group" style="pointer-events: none;" transform="matrix(1 0 0 1 152 0)"/><g class="djs-drag-group" style="pointer-events: none;" transform="matrix(1 0 0 1 8 3)"/><g class="djs-drag-group" style="pointer-events: none;" transform="matrix(1 0 0 1 -58 -12)"/></svg>